<svg width="814" height="238" viewBox="0 0 814 238" fill="none" xmlns="http://www.w3.org/2000/svg">
<path fill-rule="evenodd" clip-rule="evenodd" d="M164.934 37.201L148.127 25.7896L22.8362 86.0033V111.835L164.934 37.201ZM22.8362 130.634L180.546 47.8007L200.5 61.3486L22.8362 154.662V130.634ZM22.8362 173.462V201.78L235.732 85.2689L216.112 71.9483L22.8362 173.462Z" fill="#C9A664"/>
<path d="M164.934 37.2009L165.22 37.7447L166.126 37.2682L165.279 36.6929L164.934 37.2009ZM148.127 25.7894L148.471 25.2815L148.179 25.083L147.861 25.236L148.127 25.7894ZM22.8362 86.0032L22.5703 85.4495L22.2223 85.6168V86.0032H22.8362ZM22.8362 111.834H22.2223V112.85L23.1215 112.378L22.8362 111.834ZM22.8362 130.634L22.5508 130.09L22.2223 130.263V130.634H22.8362ZM180.546 47.8006L180.891 47.2927L180.586 47.0859L180.261 47.257L180.546 47.8006ZM200.5 61.3484L200.786 61.892L201.692 61.4157L200.845 60.8402L200.5 61.3484ZM22.8362 154.662H22.2223V155.678L23.1215 155.206L22.8362 154.662ZM22.8362 173.462L22.5508 172.918L22.2223 173.091V173.462H22.8362ZM22.8362 201.78H22.2223V202.816L23.1308 202.318L22.8362 201.78ZM235.732 85.2688L236.027 85.8074L236.908 85.325L236.077 84.7606L235.732 85.2688ZM216.112 71.9481L216.457 71.44L216.152 71.2334L215.827 71.4043L216.112 71.9481ZM165.279 36.6929L148.471 25.2815L147.782 26.2973L164.589 37.709L165.279 36.6929ZM147.861 25.236L22.5703 85.4495L23.102 86.5565L148.392 26.3428L147.861 25.236ZM22.2223 86.0032V111.834H23.45V86.0032H22.2223ZM164.649 36.6573L22.5508 111.291L23.1215 112.378L165.22 37.7447L164.649 36.6573ZM23.1215 131.178L180.831 48.3441L180.261 47.257L22.5508 130.09L23.1215 131.178ZM200.845 60.8402L180.891 47.2927L180.201 48.3088L200.155 61.8563L200.845 60.8402ZM200.215 60.8046L22.5508 154.118L23.1215 155.206L200.786 61.892L200.215 60.8046ZM22.2223 130.634V154.662H23.45V130.634H22.2223ZM22.2223 173.462V201.78H23.45V173.462H22.2223ZM23.1308 202.318L236.027 85.8074L235.437 84.7301L22.5415 201.241L23.1308 202.318ZM236.077 84.7606L216.457 71.44L215.767 72.4561L235.387 85.7767L236.077 84.7606ZM23.1215 174.005L216.398 72.4917L215.827 71.4043L22.5508 172.918L23.1215 174.005Z" fill="#C9A664"/>
<path fill-rule="evenodd" clip-rule="evenodd" d="M130.287 143.716L236.711 201.78V86.0032L235.998 85.5149L130.287 143.716Z" fill="#484848"/>
<path d="M236.711 201.78L236.417 202.319L237.325 202.814V201.78H236.711ZM130.287 143.716L129.991 143.178L129.01 143.718L129.993 144.255L130.287 143.716ZM236.711 86.0033H237.325V85.6796L237.058 85.4966L236.711 86.0033ZM235.998 85.5151L236.346 85.0086L236.034 84.7947L235.702 84.9772L235.998 85.5151ZM237.005 201.241L130.581 143.177L129.993 144.255L236.417 202.319L237.005 201.241ZM236.097 86.0033V201.78H237.325V86.0033H236.097ZM235.651 86.0215L236.364 86.5098L237.058 85.4966L236.346 85.0086L235.651 86.0215ZM130.583 144.254L236.294 86.053L235.702 84.9772L129.991 143.178L130.583 144.254Z" fill="#484848"/>
<path d="M311.368 87.3047H324.431V130.897C324.431 134.927 323.525 138.428 321.715 141.399C319.923 144.37 317.431 146.66 314.236 148.268C311.044 149.875 307.329 150.679 303.098 150.679C299.333 150.679 295.915 150.018 292.844 148.695C289.791 147.352 287.37 145.317 285.58 142.589C283.788 139.842 282.904 136.392 282.923 132.241H296.077C296.119 133.889 296.453 135.304 297.084 136.484C297.737 137.644 298.621 138.54 299.741 139.171C300.88 139.781 302.224 140.086 303.768 140.086C305.396 140.086 306.769 139.74 307.888 139.048C309.028 138.336 309.892 137.298 310.484 135.935C311.073 134.571 311.368 132.892 311.368 130.897V87.3047ZM346.13 149.825H331.97L353.546 87.3047H370.575L392.122 149.825H377.961L362.305 101.591H361.816L346.13 149.825ZM345.244 125.25H378.693V135.568H345.244V125.25ZM389.627 98.2028V87.3047H440.962V98.2028H421.826V149.825H408.763V98.2028H389.627ZM462.629 87.3047V149.825H449.414V87.3047H462.629Z" fill="#484848"/>
<path d="M496.943 149.825V87.3047H500.758V146.283H531.278V149.825H496.943ZM587.615 87.3047H591.43V128.7C591.43 132.953 590.443 136.749 588.469 140.086C586.497 143.404 583.769 146.029 580.292 147.962C576.832 149.875 572.855 150.832 568.358 150.832C563.882 150.832 559.904 149.875 556.425 147.962C552.945 146.029 550.21 143.393 548.216 140.056C546.242 136.718 545.264 132.933 545.284 128.7V87.3047H549.1V128.486C549.1 132.088 549.915 135.293 551.541 138.102C553.191 140.91 555.457 143.129 558.347 144.757C561.238 146.365 564.575 147.169 568.358 147.169C572.142 147.169 575.479 146.365 578.367 144.757C581.257 143.129 583.516 140.91 585.144 138.102C586.792 135.293 587.615 132.088 587.615 128.486V87.3047ZM609.491 149.825V87.3047H613.307V116.763H650.967V87.3047H654.783V149.825H650.967V120.305H613.307V149.825H609.491ZM715.188 87.3047H719.001V128.7C719.001 132.953 718.014 136.749 716.042 140.086C714.068 143.404 711.343 146.029 707.863 147.962C704.403 149.875 700.425 150.832 695.929 150.832C691.453 150.832 687.475 149.875 683.996 147.962C680.516 146.029 677.781 143.393 675.787 140.056C673.813 136.718 672.835 132.933 672.857 128.7V87.3047H676.671V128.486C676.671 132.088 677.486 135.293 679.114 138.102C680.762 140.91 683.031 143.129 685.918 144.757C688.808 146.365 692.145 147.169 695.929 147.169C699.713 147.169 703.05 146.365 705.94 144.757C708.828 143.129 711.087 140.91 712.715 138.102C714.363 135.293 715.188 132.088 715.188 128.486V87.3047ZM737.062 149.825V87.3047H756.32C760.266 87.3047 763.665 88.0779 766.513 89.6248C769.361 91.1714 771.549 93.3186 773.074 96.066C774.601 98.793 775.362 101.968 775.362 105.59C775.362 109.172 774.601 112.327 773.074 115.054C771.549 117.761 769.361 119.877 766.513 121.404C763.684 122.93 760.298 123.693 756.35 123.693H739.107V120.121H756.259C759.473 120.121 762.221 119.521 764.499 118.32C766.778 117.12 768.526 115.441 769.747 113.283C770.97 111.106 771.579 108.541 771.579 105.59C771.579 102.619 770.97 100.034 769.747 97.8366C768.526 95.6182 766.768 93.8984 764.467 92.6775C762.189 91.4563 759.443 90.8457 756.227 90.8457H740.877V149.825H737.062ZM762.729 121.495L778.11 149.825H773.715L758.424 121.495H762.729Z" fill="#C9A664"/>
<path d="M498.126 201.895V180.459H510.087V181.673H499.435V190.559H509.093V191.774H499.435V201.895H498.126ZM516.218 180.459V201.895H514.942V180.459H516.218ZM527.477 202.23C526.153 202.23 524.975 201.874 523.941 201.162C522.91 200.443 522.097 199.456 521.503 198.2C520.911 196.944 520.614 195.514 520.614 193.909C520.614 192.297 520.911 190.866 521.503 189.617C522.097 188.362 522.91 187.374 523.941 186.656C524.975 185.937 526.153 185.577 527.477 185.577C528.803 185.577 529.982 185.937 531.015 186.656C532.047 187.374 532.859 188.362 533.454 189.617C534.045 190.874 534.342 192.304 534.342 193.909C534.342 195.514 534.045 196.944 533.454 198.2C532.859 199.456 532.047 200.443 531.015 201.162C529.982 201.874 528.803 202.23 527.477 202.23ZM527.477 201.047C528.601 201.047 529.581 200.73 530.419 200.094C531.263 199.459 531.914 198.601 532.376 197.52C532.842 196.438 533.075 195.235 533.075 193.909C533.075 192.583 532.842 191.383 532.376 190.308C531.907 189.227 531.256 188.368 530.419 187.734C529.581 187.092 528.601 186.771 527.477 186.771C526.355 186.771 525.375 187.092 524.538 187.734C523.7 188.368 523.05 189.227 522.581 190.308C522.114 191.383 521.881 192.583 521.881 193.909C521.881 195.235 522.109 196.438 522.571 197.52C523.037 198.601 523.69 199.459 524.528 200.094C525.372 200.73 526.355 201.047 527.477 201.047ZM541.699 201.895L536.884 185.818H538.225L542.367 200.021H542.482L546.637 185.818H547.966L552.11 200.011H552.214L556.359 185.818H557.697L552.884 201.895H551.462L547.359 187.901H547.224L543.121 201.895H541.699ZM561.736 201.895V185.818H563.003V201.895H561.736ZM562.375 182.971C562.097 182.971 561.852 182.874 561.643 182.678C561.439 182.483 561.338 182.246 561.338 181.967C561.338 181.687 561.439 181.45 561.643 181.255C561.844 181.059 562.09 180.962 562.375 180.962C562.654 180.962 562.895 181.059 563.096 181.255C563.305 181.45 563.411 181.687 563.411 181.967C563.411 182.246 563.31 182.483 563.106 182.678C562.905 182.874 562.662 182.971 562.375 182.971ZM569.626 191.47V201.895H568.349V185.818H569.594V188.362H569.721C570.097 187.531 570.701 186.865 571.531 186.362C572.361 185.86 573.348 185.609 574.492 185.609C575.573 185.609 576.523 185.839 577.338 186.3C578.161 186.76 578.802 187.416 579.263 188.267C579.73 189.112 579.963 190.12 579.963 191.292V201.895H578.689V191.344C578.689 189.977 578.279 188.878 577.464 188.047C576.653 187.21 575.583 186.792 574.252 186.792C573.358 186.792 572.562 186.987 571.865 187.378C571.168 187.768 570.62 188.316 570.222 189.021C569.825 189.719 569.626 190.535 569.626 191.47ZM591.067 208.258C590.07 208.258 589.171 208.126 588.378 207.861C587.583 207.603 586.905 207.233 586.348 206.751C585.795 206.27 585.375 205.698 585.081 205.035L586.149 204.407C586.387 204.923 586.723 205.384 587.163 205.788C587.602 206.193 588.148 206.511 588.796 206.741C589.451 206.971 590.208 207.086 591.067 207.086C592.614 207.086 593.839 206.685 594.741 205.882C595.647 205.087 596.101 203.866 596.101 202.219V198.221H595.973C595.73 198.919 595.367 199.54 594.885 200.084C594.411 200.621 593.83 201.043 593.14 201.35C592.447 201.657 591.664 201.811 590.785 201.811C589.515 201.811 588.398 201.483 587.435 200.827C586.473 200.171 585.724 199.25 585.186 198.064C584.648 196.871 584.381 195.468 584.381 193.856C584.381 192.245 584.641 190.818 585.164 189.576C585.694 188.327 586.441 187.35 587.403 186.645C588.366 185.933 589.498 185.577 590.795 185.577C591.723 185.577 592.526 185.755 593.201 186.111C593.886 186.46 594.456 186.924 594.917 187.503C595.377 188.082 595.733 188.717 595.985 189.408H596.13V185.818H597.365V202.271C597.365 203.611 597.1 204.724 596.57 205.61C596.047 206.497 595.31 207.159 594.362 207.599C593.422 208.038 592.322 208.258 591.067 208.258ZM590.9 200.628C591.973 200.628 592.899 200.356 593.672 199.812C594.453 199.261 595.052 198.479 595.472 197.467C595.897 196.449 596.111 195.242 596.111 193.846C596.111 192.492 595.904 191.282 595.492 190.214C595.082 189.147 594.485 188.306 593.704 187.692C592.921 187.078 591.988 186.771 590.9 186.771C589.79 186.771 588.845 187.085 588.064 187.713C587.283 188.334 586.682 189.178 586.264 190.245C585.852 191.313 585.645 192.513 585.645 193.846C585.645 195.186 585.857 196.365 586.274 197.384C586.694 198.395 587.293 199.191 588.074 199.77C588.855 200.342 589.798 200.628 590.9 200.628ZM610.051 181.673V180.459H625.066V181.673H618.213V201.895H616.904V181.673H610.051ZM630.66 191.47V201.895H629.383V180.459H630.66V188.362H630.785C631.161 187.524 631.762 186.858 632.585 186.362C633.415 185.86 634.409 185.609 635.566 185.609C636.649 185.609 637.599 185.839 638.424 186.3C639.247 186.753 639.887 187.406 640.349 188.257C640.816 189.101 641.049 190.113 641.049 191.292V201.895H639.784V191.344C639.784 189.97 639.374 188.867 638.559 188.037C637.744 187.207 636.666 186.792 635.325 186.792C634.426 186.792 633.623 186.987 632.919 187.378C632.214 187.768 631.659 188.316 631.256 189.021C630.859 189.719 630.66 190.535 630.66 191.47ZM652.6 202.23C651.148 202.23 649.886 201.87 648.811 201.151C647.738 200.433 646.908 199.449 646.321 198.2C645.734 196.951 645.442 195.528 645.442 193.93C645.442 192.325 645.734 190.894 646.321 189.638C646.913 188.382 647.725 187.392 648.759 186.666C649.791 185.94 650.969 185.577 652.295 185.577C653.196 185.577 654.046 185.759 654.849 186.122C655.657 186.478 656.369 186.994 656.983 187.671C657.604 188.348 658.09 189.164 658.439 190.12C658.792 191.076 658.972 192.15 658.972 193.344V194.139H646.247V192.977H657.695C657.695 191.812 657.457 190.762 656.983 189.827C656.509 188.892 655.863 188.149 655.048 187.598C654.232 187.046 653.314 186.771 652.295 186.771C651.229 186.771 650.277 187.071 649.439 187.671C648.609 188.264 647.949 189.066 647.46 190.078C646.979 191.09 646.728 192.22 646.709 193.469V193.993C646.709 195.332 646.942 196.536 647.409 197.603C647.883 198.664 648.56 199.505 649.439 200.126C650.318 200.74 651.372 201.047 652.6 201.047C653.479 201.047 654.228 200.9 654.849 200.607C655.477 200.307 655.988 199.945 656.386 199.519C656.784 199.093 657.083 198.682 657.287 198.284L658.449 198.755C658.203 199.292 657.825 199.829 657.307 200.366C656.799 200.897 656.15 201.34 655.362 201.696C654.581 202.052 653.66 202.23 652.6 202.23ZM678.046 201.895H672.104V180.459H678.508C680.516 180.459 682.235 180.885 683.667 181.736C685.096 182.587 686.191 183.809 686.952 185.4C687.718 186.983 688.099 188.885 688.091 191.104C688.084 193.371 687.689 195.311 686.898 196.923C686.11 198.528 684.971 199.76 683.478 200.618C681.985 201.469 680.175 201.895 678.046 201.895ZM673.412 200.681H677.994C679.905 200.681 681.518 200.3 682.829 199.54C684.141 198.772 685.13 197.673 685.8 196.243C686.478 194.812 686.812 193.099 686.805 191.104C686.805 189.136 686.481 187.451 685.832 186.048C685.184 184.639 684.239 183.557 682.996 182.804C681.761 182.05 680.249 181.673 678.456 181.673H673.412V200.681ZM692.747 201.895V185.818H693.992V188.33H694.107C694.456 187.507 695.045 186.847 695.875 186.352C696.705 185.849 697.651 185.598 698.712 185.598C698.822 185.598 698.933 185.598 699.046 185.598C699.156 185.598 699.262 185.602 699.36 185.609V186.896C699.276 186.889 699.173 186.879 699.055 186.865C698.945 186.844 698.805 186.833 698.638 186.833C697.744 186.833 696.948 187.025 696.251 187.409C695.561 187.793 695.016 188.323 694.618 189C694.22 189.67 694.021 190.437 694.021 191.303V201.895H692.747ZM708.568 202.23C707.117 202.23 705.855 201.87 704.779 201.151C703.706 200.433 702.876 199.449 702.289 198.2C701.702 196.951 701.41 195.528 701.41 193.93C701.41 192.325 701.702 190.894 702.289 189.638C702.881 188.382 703.694 187.392 704.728 186.666C705.759 185.94 706.937 185.577 708.263 185.577C709.165 185.577 710.014 185.759 710.817 186.122C711.625 186.478 712.337 186.994 712.951 187.671C713.572 188.348 714.058 189.164 714.407 190.12C714.761 191.076 714.94 192.15 714.94 193.344V194.139H702.216V192.977H713.663C713.663 191.812 713.425 190.762 712.951 189.827C712.477 188.892 711.831 188.149 711.016 187.598C710.198 187.046 709.282 186.771 708.263 186.771C707.195 186.771 706.245 187.071 705.408 187.671C704.578 188.264 703.917 189.066 703.429 190.078C702.947 191.09 702.697 192.22 702.677 193.469V193.993C702.677 195.332 702.91 196.536 703.377 197.603C703.851 198.664 704.529 199.505 705.408 200.126C706.287 200.74 707.34 201.047 708.568 201.047C709.447 201.047 710.196 200.9 710.817 200.607C711.446 200.307 711.957 199.945 712.354 199.519C712.752 199.093 713.052 198.682 713.255 198.284L714.417 198.755C714.171 199.292 713.793 199.829 713.275 200.366C712.767 200.897 712.119 201.34 711.33 201.696C710.55 202.052 709.629 202.23 708.568 202.23ZM723.593 202.24C722.665 202.24 721.815 202.055 721.039 201.685C720.273 201.316 719.655 200.775 719.188 200.063C718.726 199.351 718.498 198.486 718.498 197.467C718.498 196.797 718.616 196.208 718.854 195.699C719.09 195.189 719.456 194.75 719.952 194.38C720.448 194.01 721.081 193.706 721.857 193.469C722.631 193.225 723.554 193.037 724.629 192.904C725.445 192.806 726.174 192.712 726.817 192.621C727.458 192.524 727.959 192.374 728.322 192.171C728.693 191.969 728.877 191.662 728.877 191.25V190.58C728.877 189.408 728.507 188.477 727.768 187.786C727.028 187.095 726.009 186.75 724.713 186.75C723.561 186.75 722.591 187.004 721.803 187.514C721.022 188.016 720.475 188.665 720.16 189.46L718.957 189.011C719.264 188.243 719.709 187.604 720.286 187.095C720.872 186.586 721.543 186.205 722.297 185.954C723.055 185.703 723.851 185.577 724.681 185.577C725.4 185.577 726.083 185.679 726.731 185.881C727.387 186.083 727.971 186.39 728.48 186.802C728.995 187.214 729.405 187.74 729.705 188.382C730.004 189.017 730.154 189.778 730.154 190.664V201.895H728.877V198.995H728.784C728.504 199.596 728.121 200.143 727.632 200.639C727.151 201.127 726.569 201.518 725.884 201.811C725.209 202.097 724.445 202.24 723.593 202.24ZM723.718 201.057C724.723 201.057 725.612 200.813 726.388 200.325C727.168 199.829 727.78 199.152 728.219 198.294C728.659 197.436 728.877 196.463 728.877 195.374V193.009C728.718 193.148 728.485 193.274 728.178 193.385C727.876 193.49 727.534 193.584 727.151 193.668C726.773 193.745 726.378 193.814 725.958 193.877C725.545 193.933 725.145 193.985 724.755 194.034C723.583 194.174 722.628 194.39 721.887 194.683C721.155 194.969 720.617 195.346 720.276 195.814C719.942 196.281 719.775 196.846 719.775 197.509C719.775 198.605 720.151 199.47 720.904 200.105C721.658 200.74 722.596 201.057 723.718 201.057ZM735.507 201.895V185.818H736.752V188.246H736.877C737.184 187.437 737.715 186.795 738.469 186.321C739.22 185.846 740.129 185.609 741.189 185.609C742.353 185.609 743.291 185.888 744.003 186.446C744.72 187.004 745.238 187.761 745.553 188.717H745.666C745.98 187.775 746.542 187.022 747.35 186.457C748.168 185.891 749.172 185.609 750.366 185.609C751.92 185.609 753.106 186.101 753.924 187.085C754.746 188.061 755.156 189.401 755.156 191.104V201.895H753.882V191.104C753.882 189.764 753.56 188.71 752.919 187.943C752.276 187.175 751.335 186.792 750.093 186.792C748.767 186.792 747.748 187.207 747.038 188.037C746.326 188.867 745.97 189.924 745.97 191.208V201.895H744.693V191.02C744.693 189.771 744.379 188.756 743.753 187.974C743.124 187.186 742.181 186.792 740.927 186.792C740.075 186.792 739.34 186.987 738.719 187.378C738.105 187.768 737.626 188.306 737.285 188.989C736.951 189.673 736.782 190.458 736.782 191.344V201.895H735.507ZM770.668 189.283L769.484 189.597C769.297 189.011 769.027 188.505 768.679 188.079C768.33 187.653 767.891 187.325 767.36 187.095C766.837 186.858 766.211 186.739 765.477 186.739C764.298 186.739 763.333 187.032 762.579 187.618C761.833 188.204 761.46 188.969 761.46 189.91C761.46 190.678 761.715 191.313 762.223 191.815C762.731 192.311 763.51 192.688 764.556 192.946L767.026 193.563C768.296 193.877 769.251 194.387 769.894 195.091C770.535 195.789 770.857 196.658 770.857 197.698C770.857 198.584 770.616 199.369 770.135 200.053C769.651 200.736 768.986 201.27 768.136 201.654C767.291 202.038 766.307 202.23 765.185 202.23C763.684 202.23 762.454 201.881 761.491 201.183C760.529 200.478 759.91 199.47 759.638 198.158L760.863 197.844C761.094 198.891 761.57 199.69 762.297 200.241C763.029 200.785 763.989 201.057 765.175 201.057C766.486 201.057 767.542 200.747 768.345 200.126C769.153 199.505 769.558 198.709 769.558 197.739C769.558 197 769.322 196.375 768.846 195.866C768.372 195.357 767.655 194.983 766.692 194.746L764.126 194.118C762.815 193.797 761.833 193.284 761.177 192.58C760.521 191.868 760.193 190.992 760.193 189.952C760.193 189.087 760.421 188.327 760.873 187.671C761.327 187.015 761.951 186.502 762.746 186.132C763.542 185.762 764.453 185.577 765.477 185.577C766.837 185.577 767.947 185.898 768.804 186.54C769.663 187.182 770.285 188.096 770.668 189.283Z" fill="#484848"/>
</svg>
