<svg width="60" height="60" viewBox="0 0 60 60" fill="none" xmlns="http://www.w3.org/2000/svg">
<path d="M0 30.0832C0 46.6058 13.3943 60.0001 29.9169 60.0001C46.4395 60.0001 59.8338 46.6058 59.8338 30.0832C59.8338 13.5605 46.4395 0.16626 29.9169 0.16626C13.3943 0.16626 0 13.5605 0 30.0832Z" fill="#C9A664"/>
<path fill-rule="evenodd" clip-rule="evenodd" d="M30.8511 46.0299C33.3244 42.5545 40.8739 31.3267 40.8739 23.7609C40.8739 17.7979 36.0399 12.9639 30.0768 12.9639C24.1138 12.9639 19.2798 17.7979 19.2798 23.7609C19.2798 31.3267 26.8292 42.5545 29.3026 46.0299C29.6873 46.5705 30.4663 46.5705 30.8511 46.0299ZM30.0768 28.3882C32.6324 28.3882 34.7041 26.3165 34.7041 23.7609C34.7041 21.2053 32.6324 19.1336 30.0768 19.1336C27.5212 19.1336 25.4495 21.2053 25.4495 23.7609C25.4495 26.3165 27.5212 28.3882 30.0768 28.3882Z" fill="white"/>
</svg>
