<svg width="104" height="104" viewBox="0 0 104 104" fill="none" xmlns="http://www.w3.org/2000/svg">
<path d="M0 52C0 80.7188 23.2812 104 52 104C80.7188 104 104 80.7188 104 52C104 23.2812 80.7188 0 52 0C23.2812 0 0 23.2812 0 52Z" fill="#C9A664"/>
<path fill-rule="evenodd" clip-rule="evenodd" d="M70.2 33.475C65.325 28.6 58.825 26 52 26C37.7 26 26 37.7 26 52C26 56.55 27.3 61.1 29.575 65L26 78L39.65 74.425C43.55 76.375 47.775 77.675 52 77.675C66.3 77.675 78 65.975 78 51.675C78 44.85 75.075 38.35 70.2 33.475ZM52 73.45C48.1 73.45 44.2 72.475 40.95 70.525L40.3 70.2L32.175 72.475L34.45 64.675L33.8 63.7C31.525 60.125 30.55 56.225 30.55 52.325C30.55 40.625 40.3 30.875 52 30.875C57.85 30.875 63.05 33.15 67.275 37.05C71.5 41.275 73.45 46.475 73.45 52.325C73.45 63.7 64.025 73.45 52 73.45ZM63.7 57.2C63.05 56.875 59.8 55.25 59.15 55.25C58.5 54.925 58.175 54.925 57.85 55.575C57.525 56.225 56.225 57.525 55.9 58.175C55.575 58.5 55.25 58.5 54.6 58.5C53.95 58.175 52 57.525 49.4 55.25C47.45 53.625 46.15 51.35 45.825 50.7C45.5 50.05 45.825 49.725 46.15 49.4C46.475 49.075 46.8 48.75 47.125 48.425C47.45 48.1 47.45 47.775 47.775 47.45C48.1 47.125 47.775 46.8 47.775 46.475C47.775 46.15 46.475 42.9 45.825 41.6C45.5 40.625 44.85 40.625 44.525 40.625C44.2 40.625 43.875 40.625 43.225 40.625C42.9 40.625 42.25 40.625 41.6 41.275C40.95 41.925 39.325 43.55 39.325 46.8C39.325 50.05 41.6 52.975 41.925 53.625C42.25 53.95 46.475 60.775 52.975 63.375C58.5 65.65 59.475 65 60.775 65C62.075 65 64.675 63.375 65 62.075C65.65 60.45 65.65 59.15 65.325 59.15C65 57.525 64.35 57.525 63.7 57.2Z" fill="white"/>
</svg>
